Coordinates
version=1
nRows=29
nColumns=24
inDegrees=yes

Units are S.I. units (second, meters, Newtons, ...)
Angles are in degrees.

endheader
time	pelvis_tilt	pelvis_list	pelvis_rotation	pelvis_tx	pelvis_ty	pelvis_tz	hip_flexion_r	hip_adduction_r	hip_rotation_r	knee_angle_r	ankle_angle_r	subtalar_angle_r	mtp_angle_r	hip_flexion_l	hip_adduction_l	hip_rotation_l	knee_angle_l	ankle_angle_l	subtalar_angle_l	mtp_angle_l	lumbar_extension	lumbar_bending	lumbar_rotation
      1.54500000	      5.30030864	     -9.84094550	      8.27007915	      0.24856137	      0.91215085	      0.05822743	      2.38349215	     13.78947208	     -8.72577555	    -16.04777554	     18.95412926	     -5.03749629	     24.87730405	     17.23419138	     -7.72876346	      7.02012811	    -70.67122439	     15.70375256	     -0.81433092	     27.44133076	    -14.14043189	     10.27876312	     -4.84068949
      1.55000000	      5.42369103	     -9.66551259	      8.29445977	      0.25560112	      0.91302172	      0.05803950	      1.38640409	     13.77988720	     -8.23639564	    -15.38010653	     18.93742329	     -5.44527905	     24.66427729	     17.72046073	     -7.42705942	      6.89921244	    -69.96991247	     16.13403845	     -0.92584259	     27.33079770	    -14.28056729	     10.10766946	     -4.88875026
      1.55500000	      5.55845862	     -9.48411944	      8.30951403	      0.26264722	      0.91385414	      0.05786140	      0.37233493	     13.76109436	     -7.74597350	    -14.70776529	     18.90835796	     -5.86631681	     24.43408339	     18.15928281	     -7.13561843	      6.75235060	    -69.17695827	     16.51993129	     -1.06478091	     27.19653200	    -14.43644047	      9.92717202	     -4.93560954
      1.56000000	      5.68895966	     -9.29712135	      8.31162339	      0.26969311	      0.91464074	      0.05766537	     -0.64345417	     13.72685382	     -7.25431984	    -14.02807302	     18.87174014	     -6.28227059	     24.19976420	     18.56429618	     -6.84643166	      6.58723488	    -68.28638688	     16.85441149	     -1.22629684	     27.04583460	    -14.58994826	      9.74086292	     -4.97517812
      1.56500000	      5.84953127	     -9.13223437	      8.28949375	      0.27673754	      0.91539710	      0.05752554	     -1.69962265	     13.71593139	     -6.74148615	    -13.33032554	     18.81239338	     -6.65946630	     23.91477341	     18.91004401	     -6.61732499	      6.37592216	    -67.31889934	     17.14896631	     -1.38670042	     26.83517009	    -14.78181770	      9.57315673	     -4.99614608
      1.57000000	      5.98538470	     -8.94469282	      8.26900025	      0.28377891	      0.91607383	      0.05735477	     -2.72346295	     13.66613161	     -6.27723893	    -12.65125079	     18.76321472	     -7.04056128	     23.64253696	     19.24259995	     -6.35682308	      6.17423241	    -66.25803943	     17.41209540	     -1.57449265	     26.62058058	    -14.94707981	      9.37826718	     -5.01942281
      1.57500000	      6.12360711	     -8.75440876	      8.24019951	      0.29079849	      0.91669280	      0.05717681	     -3.74576352	     13.60334019	     -5.84428666	    -11.97925509	     18.71287206	     -7.40817810	     23.41746725	     19.54131292	     -6.10409507	      5.95986229	    -65.11389949	     17.61507268	     -1.76853038	     26.43017452	    -15.12025459	      9.18017589	     -5.04382721
      1.58000000	      6.26984193	     -8.57624610	      8.19321604	      0.29781363	      0.91725828	      0.05705871	     -4.77873072	     13.54893671	     -5.42573359	    -11.30146081	     18.64931131	     -7.72999258	     23.20957349	     19.79895094	     -5.88908869	      5.72345152	    -63.88706981	     17.79048530	     -1.95914749	     26.23514401	    -15.30424454	      8.98483031	     -5.04656475
      1.58500000	      6.41883889	     -8.40278068	      8.13407790	      0.30480990	      0.91776179	      0.05693757	     -5.80676896	     13.48747666	     -5.04730302	    -10.63666236	     18.58186383	     -8.01614893	     23.02657724	     20.02266977	     -5.69230909	      5.47317507	    -62.58444487	     17.92889307	     -2.14454917	     26.03714037	    -15.49644990	      8.79320419	     -5.03712844
      1.59000000	      6.54021569	     -8.21866863	      8.06386393	      0.31179283	      0.91817904	      0.05683274	     -6.79388280	     13.40185670	     -4.72026607	     -9.99566710	     18.52630316	     -8.27288274	     22.89702397	     20.23900536	     -5.48697818	      5.22383998	    -61.19745325	     18.00963643	     -2.33105558	     25.87150708	    -15.66219379	      8.58176114	     -5.01288051
      1.59500000	      6.68591157	     -8.06156349	      7.97064004	      0.31877939	      0.91855957	      0.05676112	     -7.80609692	     13.33638959	     -4.41175382	     -9.35265441	     18.44947877	     -8.46712649	     22.79019329	     20.39886570	     -5.34277588	      4.93579234	    -59.73939478	     18.07396545	     -2.50005560	     25.69972230	    -15.85515033	      8.39639730	     -4.96700939
      1.60000000	      6.83018619	     -7.91594021	      7.86251811	      0.32573585	      0.91887496	      0.05671538	     -8.80088769	     13.27366939	     -4.15047837	     -8.73532477	     18.38301579	     -8.60765434	     22.71457296	     20.53024336	     -5.22440884	      4.63836493	    -58.20811514	     18.10035871	     -2.65653703	     25.52098099	    -16.05249519	      8.21874108	     -4.90226746
      1.60500000	      6.98239043	     -7.79036056	      7.73932564	      0.33269471	      0.91913985	      0.05669244	     -9.79442025	     13.22149007	     -3.92859217	     -8.13370979	     18.30865106	     -8.67374489	     22.66857620	     20.62159211	     -5.14909889	      4.31666470	    -56.60718796	     18.11344853	     -2.79422849	     25.31050205	    -16.25895081	      8.05941442	     -4.82472649
      1.61000000	      7.07877158	     -7.64503266	      7.59503922	      0.33965655	      0.91928689	      0.05669296	    -10.70125607	     13.13080788	     -3.77508515	     -7.59147044	     18.25846564	     -8.72546297	     22.65607171	     20.72960734	     -5.05505986	      3.97917967	    -54.92424067	     18.05602586	     -2.92466346	     25.14102168	    -16.40567732	      7.86420604	     -4.73712913
      1.61500000	      7.23043959	     -7.54319315	      7.45310571	      0.34656876	      0.91942351	      0.05669886	    -11.66408353	     13.08530289	     -3.61316033	     -7.03751434	     18.20741380	     -8.68609029	     22.68130088	     20.75855510	     -5.02186934	      3.66189971	    -53.18475088	     18.00242783	     -3.03207709	     24.95402407	    -16.61678518	      7.72112727	     -4.59883573
      1.62000000	      7.34235502	     -7.43376735	      7.28564315	      0.35350625	      0.91946768	      0.05674810	    -12.55548750	     13.01633833	     -3.52797067	     -6.54605247	     18.17142474	     -8.61540511	     22.73571948	     20.78808509	     -4.99975504	      3.29152626	    -51.37150024	     17.89928531	     -3.12328550	     24.77109147	    -16.78543294	      7.55638420	     -4.46949583
      1.62500000	      7.46566560	     -7.35107123	      7.12045052	      0.36041090	      0.91945957	      0.05677592	    -13.44631140	     12.96730238	     -3.44405288	     -6.06985283	     18.13795006	     -8.47126126	     22.82939845	     20.77688864	     -5.00307724	      2.95538570	    -49.49489374	     17.78915331	     -3.18966121	     24.57614242	    -16.96711565	      7.42305597	     -4.31579098
      1.63000000	      7.57244574	     -7.26614867	      6.93365640	      0.36733292	      0.91937977	      0.05683310	    -14.29552191	     12.90350232	     -3.41259439	     -5.64280833	     18.12570030	     -8.30727369	     22.94551352	     20.74425796	     -5.02396606	      2.56555769	    -47.55584934	     17.63589510	     -3.23035500	     24.38703908	    -17.13228031	      7.27851531	     -4.14621727
      1.63500000	      7.71236346	     -7.20921608	      6.75739874	      0.37425103	      0.91929347	      0.05686890	    -15.16531262	     12.86527329	     -3.41305037	     -5.23617292	     18.06591023	     -8.04495205	     23.14741010	     20.64232376	     -5.07732747	      2.19443230	    -45.55114289	     17.49617902	     -3.23808674	     24.14669409	    -17.33130264	      7.16960825	     -3.98441325
      1.64000000	      7.79229666	     -7.14560898	      6.54366108	      0.38117367	      0.91908402	      0.05693459	    -15.94189827	     12.79804803	     -3.40229368	     -4.89235597	     18.08752463	     -7.80363101	     23.34457921	     20.56202580	     -5.12770263	      1.78902765	    -43.48877531	     17.29652410	     -3.21349002	     23.94352117	    -17.46666640	      7.03807140	     -3.76950852
      1.64500000	      7.89233496	     -7.09742095	      6.33490993	      0.38809495	      0.91884761	      0.05698107	    -16.71735330	     12.74092199	     -3.41915583	     -4.58846008	     18.08805788	     -7.51288611	     23.57093254	     20.42386199	     -5.19688582	      1.38914369	    -41.36829818	     17.09362642	     -3.13153604	     23.74595810	    -17.62408120	      6.92635603	     -3.55918002
      1.65000000	      7.97792949	     -7.06231142	      6.11557495	      0.39503297	      0.91855131	      0.05702020	    -17.45368835	     12.68397873	     -3.44975760	     -4.33026530	     18.09526413	     -7.18951326	     23.82435694	     20.26187233	     -5.28066062	      0.97723258	    -39.19538962	     16.87085394	     -3.00262702	     23.55804981	    -17.76328723	      6.82496863	     -3.33374123
      1.65500000	      8.06756410	     -7.03415574	      5.88710505	      0.40199748	      0.91821802	      0.05705928	    -18.17187835	     12.62342237	     -3.49084180	     -4.11919216	     18.11141249	     -6.83752215	     24.11835337	     20.05444878	     -5.37558108	      0.54677856	    -36.97709115	     16.63736166	     -2.81728087	     23.37622744	    -17.90550262	      6.72846697	     -3.10702291
      1.66000000	      8.15462834	     -7.02040550	      5.65101988	      0.40896839	      0.91782634	      0.05707861	    -18.86229434	     12.56452876	     -3.52701506	     -3.95663715	     18.14014784	     -6.46876914	     24.43387585	     19.81658176	     -5.48286412	      0.11012394	    -34.72737802	     16.39610884	     -2.56662149	     23.21215566	    -18.04486109	      6.64738126	     -2.86577442
      1.66500000	      8.20733538	     -7.01586143	      5.40416965	      0.41599597	      0.91735767	      0.05707631	    -19.49962016	     12.49926689	     -3.55468132	     -3.83050409	     18.19136713	     -6.08948583	     24.75112046	     19.57640588	     -5.59077333	     -0.32745317	    -32.44856822	     16.13695082	     -2.25383036	     23.07529077	    -18.13811181	      6.57306793	     -2.60457111
      1.67000000	      8.27462923	     -7.02504076	      5.14839748	      0.42304718	      0.91686331	      0.05705881	    -20.12750811	     12.43408088	     -3.57579915	     -3.75702493	     18.24751786	     -5.68954679	     25.08901356	     19.28540548	     -5.71261592	     -0.77588895	    -30.15194492	     15.87814242	     -1.87718701	     22.96322288	    -18.24820826	      6.51304869	     -2.34347523
      1.67500000	      8.32124460	     -7.04253759	      4.88725574	      0.43014301	      0.91629769	      0.05700680	    -20.71445743	     12.36294307	     -3.59068669	     -3.72397092	     18.31770358	     -5.27597410	     25.42904691	     18.98498999	     -5.83048473	     -1.21568870	    -27.84990643	     15.60421294	     -1.44664765	     22.87747824	    -18.32849872	      6.46287099	     -2.07314678
      1.68000000	      8.42020796	     -7.07121169	      4.64711918	      0.43728442	      0.91576548	      0.05689851	    -21.34357914	     12.30092442	     -3.64156226	     -3.71635365	     18.31525236	     -4.84885944	     25.89468939	     18.60025081	     -5.95369410	     -1.64849600	    -25.55188050	     15.31257023	     -0.95926452	     22.80511371	    -18.46257216	      6.43540701	     -1.84303742
      1.68500000	      8.36731933	     -7.11832764	      4.34256403	      0.44448585	      0.91499319	      0.05682665	    -21.76833776	     12.21580700	     -3.58538228	     -3.80922524	     18.45116588	     -4.44253517	     26.19271921	     18.35493080	     -6.08003628	     -2.08340019	    -23.29391041	     15.02741659	     -0.48535366	     22.77290889	    -18.42291155	      6.40639696	     -1.57789795
